<svg width="1600" height="1200" xmlns="http://www.w3.org/2000/svg" stroke="null" style="vector-effect: non-scaling-stroke;">
 <!-- Created with Method Draw - http://github.com/duopixel/Method-Draw/ -->
 <g stroke="null">
  <title stroke="null">background</title>
  <rect stroke="null" fill="#ffffff" id="canvas_background" height="1202" width="1602" y="-1" x="-1"/>
  <g stroke="null" display="none" overflow="visible" y="0" x="0" height="100%" width="100%" id="canvasGrid">
   <rect fill="url(#gridpattern)" stroke-width="0" y="0" x="0" height="100%" width="100%"/>
  </g>
 </g>
 <g stroke="null">
  <title stroke="null">Layer 1</title>
  <path id="svg_4" d="m469.999993,806.673073" opacity="0.5" fill-opacity="null" stroke-width="34.5" stroke="#000000" fill="#fff"/>
  <path id="svg_6" d="m-69.538462,342.346154c4,-4 60,-120 160,-40c100,80 116,96 96,180c-20,84 -84,220 8,260c92,40 192,0 188,-68c-4,-68 -64,-112 16,-136c80,-24 32,-4 140,104c108,108 -108,172 164,220c272,48 300,308 436,260c136,-48 168,-68 184,-192c16,-124 -84,-216 44,-236c128,-20 444,256 444,260" opacity="0.5" fill-opacity="null" stroke-opacity="null" stroke-width="26" stroke="#ffff05" fill="#fff"/>
 </g>
</svg>