<svg width="1600" height="1200" xmlns="http://www.w3.org/2000/svg" stroke="null" style="vector-effect: non-scaling-stroke;">
 <!-- Created with Method Draw - http://github.com/duopixel/Method-Draw/ -->
 <g stroke="null">
  <title stroke="null">background</title>
  <rect stroke="null" fill="#ffffff" id="canvas_background" height="1202" width="1602" y="-1" x="-1"/>
  <g stroke="null" display="none" overflow="visible" y="0" x="0" height="100%" width="100%" id="canvasGrid">
   <rect fill="url(#gridpattern)" stroke-width="0" y="0" x="0" height="100%" width="100%"/>
  </g>
 </g>
 <g stroke="null">
  <title stroke="null">Layer 1</title>
  <path stroke="#1fb67a" id="svg_1" d="m-216.50382,37.217291c0,0 -99.989814,-105.676982 158.807352,-13.548331c258.797167,92.128651 267.619798,284.514951 285.265059,325.159943c17.645261,40.644993 -11.763508,338.708274 197.038752,317.030945c208.80226,-21.67733 241.151906,-121.934979 247.033659,-219.482962c5.881754,-97.547983 -182.334368,-97.547983 -211.743137,-165.289638c-29.408769,-67.741655 0,-108.386648 67.640169,-108.386648c67.640169,0 252.915413,16.257997 276.442428,121.934979c23.527015,105.676982 194.097875,162.579972 5.881754,401.030597c-188.216121,238.450625 -8.822631,455.223921 67.640169,485.030249c76.462799,29.806328 297.028567,170.70897 399.959258,73.160987c102.930691,-97.547983 299.969443,-398.320931 61.758415,-563.610569c-238.211029,-165.289638 -405.841012,-243.869958 -411.722766,-352.256605c-5.881754,-108.386648 -138.221214,-124.644645 29.408769,-270.96662c167.629983,-146.321975 979.312007,-214.063629 888.144823,270.96662" opacity="0.5" stroke-width="34.5" fill="#fff"/>
 </g>
</svg>