<svg width="1600" height="1200" xmlns="http://www.w3.org/2000/svg" stroke="null" style="vector-effect: non-scaling-stroke;">
 <!-- Created with Method Draw - http://github.com/duopixel/Method-Draw/ -->
 <g stroke="null">
  <title stroke="null">background</title>
  <rect stroke="null" fill="#fff" id="canvas_background" height="1202" width="1602" y="-1" x="-1"/>
  <g stroke="null" style="vector-effect: non-scaling-stroke;" display="none" overflow="visible" y="0" x="0" height="100%" width="100%" id="canvasGrid">
   <rect fill="url(#gridpattern)" stroke-width="0" y="0" x="0" height="100%" width="100%"/>
  </g>
 </g>
 <g stroke="null">
  <title stroke="null">Layer 1</title>
  <path stroke="#1fb67a" transform="rotate(-153.6038818359375 1050.9727783203125,216.5475463867188) " stroke-dasharray="2,2" id="svg_2" d="m-380.710349,-485.950402c0,0 231.034672,-90.707917 334.262955,101.59286c103.228283,192.300803 -34.409428,693.008528 137.637675,754.689928c172.047138,61.681374 570.213306,373.716636 634.116519,-87.079628c63.903213,-460.796238 -152.384567,-228.583949 -280.190992,-312.035236c-127.806461,-83.451287 -49.15632,-76.194658 -132.722068,-166.902575c-83.565748,-90.707917 108.14389,-210.442376 235.950315,-119.734459c127.806425,90.707917 407.997453,170.530889 393.250561,366.460007c-14.746892,195.929118 -211.372173,232.212263 -93.396997,533.362582c117.975139,301.150292 344.094205,290.265349 535.803878,228.583949c191.709638,-61.681374 432.575595,-156.017631 363.75674,-384.60158c-68.818855,-228.583975 -427.659953,-399.114864 -462.06938,-493.451095c-34.409428,-94.336231 -398.166204,-105.221201 -417.828739,-235.840604c-19.662499,-130.619403 172.047138,-87.079602 176.962781,-83.451287c4.915607,3.628315 422.74431,141.504373 535.803842,377.344951c113.059533,235.840604 373.588026,348.318434 437.491238,261.238832c63.903213,-87.079602 39.325071,-239.468919 -98.31264,-304.778633c-137.637675,-65.309688 -117.975139,-134.247717 -78.650105,-145.132661c39.325071,-10.884944 73.734498,-58.053086 240.865958,18.141573c167.131496,76.194658 403.081847,464.424553 314.600456,558.76081c-88.481391,94.336231 -349.009848,112.47783 -344.094241,286.637034c4.915643,174.159204 432.575631,275.752064 430.117792,272.490071" opacity="0.5" stroke-width="71.5" fill="none"/>
  <path stroke="#1fb67a" transform="rotate(31.13496971130371 384.8035888671872,1181.7750244140625) " stroke-dasharray="2,2" id="svg_1" d="m-1157.144988,273.008109c0,0 248.828556,-117.34178 360.007272,131.422794c111.178716,248.764575 -37.059572,896.491203 148.238289,976.283614c185.297861,79.792411 614.130052,483.448136 682.954972,-112.648109c68.82492,-596.096245 -164.120962,-295.701287 -301.770802,-403.655725c-137.649839,-107.954438 -52.942246,-98.567096 -142.944064,-215.908876c-90.001818,-117.34178 116.472941,-272.232931 254.12278,-154.89115c137.649839,117.34178 439.420641,220.602547 423.537967,474.060793c-15.882674,253.458246 -227.651657,300.394958 -100.590267,689.969669c127.06139,389.574711 370.595721,375.493698 577.07048,295.701287c206.474759,-79.792411 465.891764,-201.827862 391.77262,-497.529149c-74.119144,-295.701287 -460.597539,-516.303834 -497.657111,-638.339286c-37.059572,-122.035452 -428.832192,-136.116465 -450.00909,-305.088629c-21.176898,-168.972164 185.297861,-112.648109 190.592085,-107.954438c5.294225,4.693671 455.303315,183.053178 577.07048,488.141807c121.767166,305.088629 402.361069,450.592437 471.185989,337.944328c68.82492,-112.648109 42.353797,-309.7823 -105.884492,-394.268382c-148.238289,-84.486082 -127.06139,-173.665835 -84.707593,-187.746849c42.353797,-14.081014 79.413369,-75.09874 259.417005,23.468356c180.003636,98.567096 434.126416,600.789916 338.830374,722.825368c-95.296043,122.035452 -375.889946,145.503808 -370.595721,370.800026c5.294225,225.296219 465.891764,356.719013 463.244661,352.499227" opacity="0.5" stroke-width="71.5" fill="none"/>
 </g>
</svg>